<svg xmlns="http://www.w3.org/2000/svg" viewBox="0 0 30 34" enable-background="new 0 0 30 34"><path d="M30 22.499c0 1.1-.749 2.5-1.665 3.111l-11.67 7.78c-.916.61-2.414.61-3.33 0l-11.67-7.78c-.916-.611-1.665-2.01-1.665-3.111v-10.998c0-1.1.749-2.5 1.665-3.111l11.67-7.78c.916-.61 2.414-.61 3.33 0l11.67 7.78c.916.611 1.665 2.01 1.665 3.111v10.998z" fill="#F38844"/><g><path d="M15.226 13.438c.659-.083 1.269-.481 1.567-1.044.321-.606.268-1.334-.151-2.051-.851-1.46-.432-2.744-.414-2.797.035-.102.008-.217-.068-.29-.077-.072-.187-.089-.28-.041-.119.061-2.88 1.521-2.88 4.019 0 1.129.752 2.062 1.72 2.202l.506.002z" fill="#fff"/><path stroke="#F38844" stroke-linecap="round" stroke-linejoin="round" stroke-miterlimit="10" fill="none" d="M15 12v6"/><path d="M14.338 15.666c.445-.61.875-.775 1.27-.775.742 0 1.336.495 1.336 1.253 0 .264-.066.644-.429 1.089l-1.534 1.897h.049c.214-.083.511-.132.775-.132 2.045 0 3.777 1.534 3.777 3.81 0 2.656-2.079 4.239-4.602 4.239-2.541 0-4.602-1.617-4.602-4.173 0-1.385.561-2.623 1.303-3.612l2.657-3.596zm.66 5.376c-1.088 0-1.847.759-1.847 1.848 0 1.006.726 1.847 1.831 1.847 1.088 0 1.831-.758 1.831-1.864-.001-1.055-.726-1.831-1.815-1.831z" fill="#fff"/></g></svg>